<?xml version="1.0" standalone="no"?>
<!DOCTYPE svg PUBLIC "-//W3C//DTD SVG 20010904//EN"
 "http://www.w3.org/TR/2001/REC-SVG-20010904/DTD/svg10.dtd">
<svg version="1.0" xmlns="http://www.w3.org/2000/svg"
 width="302.000000pt" height="302.000000pt" viewBox="0 0 302.000000 302.000000"
 preserveAspectRatio="xMidYMid meet">
<metadata>
Created by potrace 1.14, written by Peter Selinger 2001-2017
</metadata>
<g transform="translate(0.000000,302.000000) scale(0.100000,-0.100000)"
fill="#000000" stroke="none">
<path d="M1214 3002 c-10 -15 -13 -15 -30 -2 -18 14 -18 14 -5 -3 12 -15 11
-17 -5 -14 -11 1 -24 6 -31 10 -7 5 -9 0 -6 -14 5 -20 4 -20 -18 -9 l-24 13
20 -24 c11 -13 13 -18 4 -11 -9 6 -19 9 -22 5 -4 -3 -7 -1 -7 6 0 7 -5 9 -10
6 -6 -4 -8 -11 -5 -16 3 -5 -1 -6 -9 -3 -9 3 -13 11 -9 17 3 6 1 7 -5 3 -6 -3
-9 -15 -7 -25 3 -15 -1 -19 -16 -16 -10 2 -24 -4 -30 -13 -10 -16 -10 -16 -5
1 3 9 1 17 -5 17 -6 0 -7 5 -3 12 5 7 3 8 -5 4 -7 -5 -10 -10 -7 -13 3 -3 -1
-12 -9 -19 -16 -16 -29 -19 -20 -4 3 6 1 10 -4 10 -6 0 -11 -9 -11 -20 0 -11
-4 -20 -10 -20 -5 0 -7 6 -4 14 3 8 1 17 -5 21 -7 3 -8 0 -5 -9 4 -11 0 -16
-12 -16 -15 0 -16 -2 -6 -9 10 -6 7 -10 -12 -13 -20 -4 -24 -2 -16 7 7 8 6 12
-3 12 -16 0 -18 -29 -3 -40 7 -6 4 -7 -6 -3 -10 3 -18 1 -18 -4 0 -6 -5 -10
-12 -10 -9 0 -9 3 0 12 15 15 15 28 1 28 -5 0 -7 -4 -4 -10 6 -9 -8 -15 -29
-11 -5 1 -4 -5 3 -13 10 -12 9 -14 -6 -12 -10 2 -18 8 -18 14 0 6 -3 14 -7 18
-8 8 -2 -31 7 -46 3 -6 2 -10 -4 -10 -5 0 -13 5 -16 10 -5 8 -11 8 -19 1 -7
-6 -15 -8 -19 -5 -3 3 -3 -3 0 -15 3 -12 1 -21 -5 -21 -6 0 -13 8 -15 18 -4
15 -5 15 -6 -2 -1 -15 -4 -16 -15 -6 -13 10 -14 7 -10 -16 4 -24 3 -26 -11
-14 -9 7 -15 9 -14 4 4 -21 -2 -35 -11 -29 -6 4 -8 11 -5 16 10 15 -2 10 -16
-8 -8 -9 -9 -14 -3 -10 7 4 15 0 18 -9 3 -8 2 -12 -3 -9 -5 3 -12 -3 -14 -12
-4 -17 -5 -17 -6 0 0 9 -5 17 -10 17 -14 0 -33 -28 -27 -39 4 -5 2 -12 -3 -15
-5 -4 -12 -2 -16 4 -10 16 -25 12 -25 -7 0 -14 2 -15 9 -5 7 11 9 11 14 -1 4
-11 -2 -15 -27 -13 -23 1 -32 -3 -29 -11 3 -6 12 -9 21 -6 14 4 14 3 3 -5 -8
-6 -20 -8 -27 -5 -9 3 -12 -2 -9 -16 2 -12 0 -19 -6 -16 -5 4 -9 1 -9 -4 0 -6
-5 -11 -11 -11 -5 0 -7 5 -3 12 11 17 13 59 3 52 -5 -3 -7 -9 -4 -14 8 -13
-17 -60 -28 -53 -6 4 -7 1 -3 -6 5 -7 15 -10 25 -6 12 5 13 3 5 -5 -9 -9 -18
-9 -35 1 -24 12 -24 12 -5 -10 17 -19 15 -26 -6 -22 -8 1 -12 -15 -9 -32 1 -5
-3 -6 -9 -2 -7 4 -7 12 0 25 15 28 12 37 -5 13 l-15 -21 -87 24 c-143 39 -235
26 -149 -22 25 -13 106 -172 98 -192 -4 -11 -1 -13 8 -7 9 5 11 4 6 -3 -4 -7
-14 -12 -22 -12 -8 0 -12 -5 -9 -10 3 -6 -1 -13 -9 -16 -9 -3 -16 -10 -16 -16
0 -5 4 -7 9 -3 6 3 9 -3 8 -14 -1 -15 -4 -17 -14 -9 -11 8 -12 7 -7 -7 6 -14
4 -16 -7 -10 -12 8 -12 6 0 -8 8 -10 11 -20 7 -24 -3 -3 -6 -1 -6 5 0 7 -4 12
-10 12 -5 0 -6 -7 -3 -17 4 -11 3 -14 -5 -9 -8 5 -10 1 -5 -10 4 -10 2 -15 -4
-11 -5 3 -10 0 -10 -8 0 -8 4 -12 8 -10 4 3 6 -3 5 -12 -2 -9 -9 -19 -17 -21
-11 -3 -12 -2 -1 6 11 8 11 10 -1 15 -15 6 -17 -9 -4 -30 4 -6 3 -14 -2 -17
-5 -4 -12 0 -15 6 -3 7 -3 3 0 -10 4 -15 1 -22 -8 -20 -8 2 -13 -9 -13 -34 1
-20 -2 -36 -5 -36 -17 1 -20 -4 -10 -22 7 -14 7 -20 0 -20 -5 0 -10 -4 -10
-10 0 -5 6 -7 14 -4 8 3 17 1 20 -4 3 -5 -6 -8 -19 -6 -14 1 -28 -3 -32 -8 -3
-7 -1 -8 5 -4 7 4 12 2 12 -4 0 -6 5 -8 12 -3 7 4 -1 -10 -19 -31 -23 -28 -30
-46 -28 -68 3 -16 0 -26 -5 -23 -6 3 -7 -1 -3 -10 4 -13 7 -14 14 -3 6 9 8 6
6 -9 0 -12 -5 -19 -9 -17 -13 8 -9 -11 5 -25 10 -10 9 -11 -5 -6 -13 5 -16 2
-13 -14 2 -12 7 -26 11 -33 4 -7 3 -8 -4 -4 -8 5 -11 -31 -11 -124 0 -91 4
-128 11 -124 7 5 8 2 3 -6 -5 -8 -9 -28 -10 -46 -1 -29 1 -32 24 -28 26 3 26
3 4 -8 -13 -6 -23 -15 -23 -20 0 -4 0 -11 0 -15 0 -5 4 -8 9 -8 5 0 13 -4 17
-8 11 -10 14 -38 4 -32 -15 9 -18 -34 -3 -52 8 -10 11 -11 7 -3 -7 13 -5 13 9
1 15 -12 15 -31 1 -31 -3 0 -2 6 2 13 5 8 2 8 -9 -2 -17 -14 -24 -26 -9 -17 4
2 14 1 21 -3 10 -7 10 -13 2 -29 -7 -13 -7 -23 -1 -27 5 -3 7 -12 3 -20 -5
-14 4 -18 37 -16 10 0 11 -1 3 -5 -7 -3 -13 -12 -13 -20 0 -9 -5 -12 -12 -8
-7 4 -5 -2 5 -13 16 -19 16 -21 -2 -37 -20 -18 -37 -109 -26 -137 3 -8 22 -21
43 -28 54 -19 142 -71 143 -84 1 -7 1 -16 0 -21 -1 -5 5 -4 13 4 19 15 21 0 4
-19 -11 -11 -9 -13 9 -8 12 3 22 2 21 -2 -3 -25 4 -51 12 -46 10 6 14 -7 11
-32 -1 -6 4 -15 10 -19 9 -5 10 -2 6 9 -3 9 -2 19 4 22 5 4 8 1 7 -7 -2 -7 3
-12 10 -10 6 1 11 -1 10 -5 -1 -5 2 -18 6 -31 7 -20 10 -21 23 -10 14 11 15
11 5 -8 -6 -12 -7 -26 -2 -34 7 -12 11 -12 26 1 16 12 17 12 11 -3 -8 -23 1
-48 19 -48 8 0 11 6 8 15 -4 8 -11 12 -17 8 -6 -4 -7 -1 -2 7 6 10 11 9 21 -5
11 -14 11 -22 2 -33 -9 -11 -9 -13 3 -12 26 4 40 0 34 -10 -3 -5 -13 -7 -23
-4 -14 5 -14 4 -3 -4 8 -6 21 -8 29 -4 10 3 13 1 8 -6 -3 -6 -2 -13 4 -17 6
-4 8 -10 5 -15 -3 -5 -1 -12 5 -15 6 -4 9 -1 8 6 -2 6 3 14 10 16 8 3 10 -1 6
-11 -4 -12 -2 -15 9 -10 8 3 18 0 23 -7 5 -8 3 -10 -6 -4 -9 5 -11 4 -6 -4 10
-15 26 -5 27 17 0 14 2 14 6 2 12 -33 25 -41 41 -28 14 12 14 10 1 -10 l-14
-22 -17 22 c-11 15 -18 18 -18 9 0 -24 32 -41 55 -29 l20 11 -20 -24 c-17 -20
-17 -21 -2 -9 16 12 20 12 27 0 5 -8 6 -18 4 -22 -3 -4 0 -8 6 -8 7 0 9 7 5
18 -5 13 -3 14 6 5 6 -6 19 -9 28 -6 11 4 10 1 -4 -11 -16 -13 -17 -15 -2 -10
19 7 24 -12 5 -19 -7 -3 -3 -4 8 -4 15 1 20 6 17 17 -3 10 -1 10 7 -3 6 -9 8
-23 4 -30 -5 -9 -4 -9 7 0 19 19 34 16 18 -3 -12 -15 -11 -16 10 -9 16 5 21 4
17 -4 -5 -7 -1 -9 8 -5 9 3 13 10 10 15 -9 15 3 10 17 -8 8 -10 9 -14 2 -10
-6 4 -15 2 -18 -4 -5 -7 3 -10 25 -7 29 3 35 -1 49 -29 16 -32 36 -47 25 -18
-5 11 -2 13 12 8 13 -5 15 -3 9 7 -5 8 -4 11 3 6 6 -3 9 -15 7 -25 -2 -10 3
-18 10 -18 8 0 12 4 9 9 -3 4 -2 8 3 9 4 0 16 2 26 4 10 2 14 -1 11 -7 -4 -6
2 -8 17 -3 23 7 23 6 5 -7 -10 -8 -16 -21 -13 -29 4 -10 6 -8 6 5 1 15 4 16
16 6 8 -7 15 -9 15 -4 0 5 4 3 9 -5 8 -13 12 -13 27 0 11 9 15 9 10 1 -10 -16
16 -16 33 1 11 10 13 10 7 0 -4 -7 -2 -13 4 -13 14 0 41 -26 35 -32 -3 -3 2
-5 10 -5 8 0 12 4 9 9 -3 4 2 8 11 8 10 0 15 -6 12 -13 -3 -8 1 -14 9 -14 7 0
11 4 8 9 -5 8 45 0 55 -8 2 -2 11 2 19 9 10 7 13 8 9 1 -5 -9 42 -12 178 -12
166 0 185 2 185 16 1 15 2 15 11 0 13 -23 39 -23 39 0 1 15 2 15 10 1 5 -9 19
-15 32 -13 13 1 26 3 31 3 4 1 7 6 7 12 0 5 -6 7 -12 3 -20 -13 -45 -11 -45 2
0 9 5 10 18 3 11 -6 20 -5 24 1 3 5 1 10 -6 10 -7 0 -9 3 -6 6 4 4 17 0 30 -9
23 -15 51 -9 45 9 -2 5 2 10 7 12 6 1 10 -2 10 -7 0 -5 4 -13 9 -18 5 -5 6 -3
2 5 -9 16 6 16 24 0 8 -7 6 -2 -5 11 -11 14 -15 21 -8 18 6 -4 16 0 21 9 8 15
10 15 15 0 4 -10 3 -15 -3 -11 -6 3 -10 1 -10 -5 0 -7 6 -10 13 -7 6 2 11 11
11 20 -1 9 4 13 12 10 7 -2 10 -12 7 -21 -4 -13 -3 -14 5 -3 5 7 15 10 21 7 6
-4 11 -4 10 1 -3 20 2 24 16 13 13 -10 18 -11 28 -1 9 10 8 11 -8 5 l-20 -7
20 20 c11 11 26 18 33 15 11 -4 11 -6 0 -14 -10 -8 -10 -9 2 -5 8 2 15 8 15
13 0 5 6 18 13 29 12 19 13 18 7 -5 -6 -24 -5 -24 9 -6 9 10 12 24 9 30 -4 6
3 3 14 -7 14 -12 23 -15 28 -7 3 5 11 7 17 4 6 -4 8 -3 5 3 -3 5 3 17 14 26
21 19 33 22 24 7 -3 -6 -1 -10 5 -10 7 0 10 7 7 15 -6 14 8 29 28 30 6 1 9 6
8 13 -2 6 4 9 13 5 11 -4 12 -9 5 -16 -6 -6 -11 -15 -11 -21 0 -5 6 -1 14 10
11 14 12 22 3 33 -10 12 -9 12 12 2 19 -11 22 -11 16 0 -6 9 -3 11 9 6 10 -4
19 -1 23 9 3 8 12 13 19 10 7 -3 16 -1 19 5 4 5 3 9 -2 8 -20 -3 -23 2 -10 16
9 8 17 20 19 26 3 9 9 9 26 0 12 -7 22 -8 21 -4 -4 22 3 31 26 37 22 6 24 9
14 27 -10 19 -9 20 10 9 12 -6 21 -7 21 -1 0 5 -6 12 -12 14 -8 4 -7 6 4 6 9
1 19 -5 21 -11 4 -10 6 -10 6 0 1 7 5 10 11 7 6 -3 7 1 3 10 -4 12 -8 13 -13
5 -5 -9 -9 -9 -14 -1 -7 11 6 15 33 11 13 -1 13 1 2 14 -12 14 -11 16 4 10 13
-5 16 -4 11 4 -4 7 -3 12 3 12 5 0 12 -6 14 -12 4 -9 6 -8 6 3 1 8 -5 21 -11
28 -11 11 -10 12 0 7 14 -8 45 12 37 24 -7 11 20 31 44 33 14 1 17 5 10 13 -6
8 -5 16 4 26 7 7 12 19 11 26 -1 7 0 8 3 2 6 -13 33 -13 33 1 0 5 -5 7 -12 3
-7 -4 -8 -3 -4 4 4 7 2 12 -4 12 -6 0 -8 5 -5 11 5 6 12 4 20 -8 7 -10 17 -14
21 -10 11 11 14 38 3 31 -5 -3 -6 -11 -3 -17 4 -7 3 -8 -1 -4 -12 10 -16 39
-5 32 5 -3 18 5 29 17 12 12 21 18 21 12 0 -5 3 -5 8 1 4 6 36 25 72 44 86 45
96 57 104 119 l7 53 -38 17 c-27 12 -38 24 -39 40 -2 25 6 28 26 10 8 -7 6 0
-4 16 -10 16 -13 25 -5 21 9 -6 11 -4 6 7 -3 9 0 21 6 27 8 8 8 11 -2 11 -7 0
1 12 18 26 17 14 36 23 43 19 7 -4 6 -1 -2 7 -16 14 -20 32 -8 43 4 4 3 16 -3
26 -6 12 -6 19 0 19 5 0 12 -6 14 -12 4 -10 6 -10 6 -1 1 6 -3 15 -9 18 -5 3
-10 11 -10 16 0 6 4 8 9 5 17 -11 18 18 18 270 l0 252 -23 -3 c-13 -1 -21 2
-18 6 3 5 15 9 27 10 21 0 21 1 2 9 -13 6 -15 9 -5 9 9 1 11 4 5 9 -12 8 -18
29 -17 55 0 9 -3 15 -8 12 -5 -3 -12 0 -16 6 -4 7 -3 9 4 5 6 -3 13 -2 17 4 3
5 0 10 -8 10 -8 0 -22 10 -33 22 l-19 21 26 -16 c25 -17 39 -14 39 7 0 7 -3 7
-8 0 -5 -9 -11 -8 -20 2 -10 11 -10 14 0 14 6 0 3 7 -8 15 -16 13 -17 16 -4
25 13 9 13 10 0 11 -8 1 -22 0 -30 -1 -10 -1 -9 3 5 13 11 9 17 19 12 23 -4 4
-7 1 -7 -7 0 -12 -2 -11 -10 1 -7 11 -3 18 13 28 l22 13 -24 -7 c-17 -4 -22
-3 -18 7 2 8 10 13 16 11 7 -1 10 2 6 8 -5 8 -11 8 -19 1 -10 -8 -16 -4 -24
15 -7 14 -17 22 -22 19 -6 -3 -7 1 -4 9 3 9 10 16 16 16 5 0 7 -3 4 -8 -2 -4
2 -16 10 -27 12 -16 14 -17 14 -2 0 9 -4 17 -9 17 -5 0 -8 11 -6 25 2 20 0 23
-11 14 -13 -11 -16 -7 -13 18 0 3 -6 10 -15 15 -9 5 -21 19 -27 31 -9 20 -8
19 11 -3 24 -28 17 -12 -17 39 -12 18 -20 37 -17 42 3 5 0 9 -7 9 -8 0 -7 5 2
17 11 13 8 13 -16 -3 -16 -10 -26 -13 -22 -6 5 6 4 12 -2 12 -6 0 -11 5 -11
11 0 8 4 8 14 0 11 -9 16 -9 22 1 4 7 4 10 0 6 -5 -4 -13 -2 -20 3 -6 5 -22
18 -35 29 -13 11 -20 20 -15 20 6 0 16 -6 24 -12 12 -11 12 -10 2 4 -10 13
-10 17 0 22 7 3 1 3 -14 0 -18 -4 -28 -2 -28 6 0 6 4 9 9 5 5 -3 13 -1 16 5 4
6 1 9 -7 8 -8 -2 -12 5 -10 17 2 16 1 17 -7 5 -5 -8 -8 -17 -6 -20 2 -4 -2 -7
-10 -7 -11 0 -12 4 -3 14 6 7 8 17 4 20 -4 4 -11 2 -15 -5 -5 -9 -12 -4 -21
15 -14 28 -17 36 -19 61 0 6 -9 12 -18 12 -17 -1 -17 -2 0 -14 10 -8 14 -17 9
-20 -6 -3 -13 1 -16 10 -3 8 -11 12 -17 8 -8 -4 -9 -3 -5 4 4 7 1 12 -6 12 -9
0 -10 2 -1 8 8 5 8 14 -3 32 -14 23 -14 23 -9 3 4 -14 2 -23 -4 -23 -6 0 -10
3 -10 8 1 4 1 18 0 32 -1 20 -3 22 -11 10 -7 -11 -10 -8 -10 16 0 24 -5 33
-22 37 -13 4 -26 1 -30 -6 -5 -8 -8 -7 -8 6 0 9 -4 17 -10 17 -5 0 -7 -8 -3
-17 4 -11 -4 -7 -20 10 -24 25 -31 39 -29 59 1 3 -5 9 -14 12 -12 4 -12 2 -4
-14 7 -13 7 -21 -2 -26 -7 -4 -8 -3 -4 4 4 7 2 12 -3 12 -6 0 -11 7 -11 16 0
8 -4 12 -10 9 -9 -6 -14 8 -11 28 1 5 -3 6 -9 2 -6 -3 -7 -11 -4 -17 5 -7 2
-8 -5 -4 -7 5 -10 14 -7 22 3 9 0 11 -11 7 -12 -5 -14 -3 -8 8 6 11 5 12 -6 2
-7 -7 -17 -13 -22 -13 -4 0 -5 6 0 13 12 19 12 37 1 37 -6 0 -7 -7 -4 -16 4
-10 2 -14 -6 -11 -7 2 -12 9 -11 15 2 8 -5 8 -24 1 -22 -8 -24 -7 -14 5 9 11
8 15 -4 19 -8 4 -14 1 -12 -5 1 -5 -6 -12 -15 -13 -14 -3 -15 0 -5 16 8 13 8
22 1 29 -8 8 -13 7 -18 -5 -4 -11 -2 -14 7 -9 8 5 7 2 -2 -9 -16 -21 -17 -21
-19 -2 -1 8 -3 22 -4 30 -1 8 -3 13 -6 10 -2 -2 -12 4 -21 13 -9 10 -13 13 -8
6 4 -6 4 -19 1 -29 -7 -17 -8 -17 -20 0 -8 10 -18 14 -26 10 -10 -6 -10 -5 -1
5 10 11 15 11 28 0 26 -22 16 -5 -12 19 -17 15 -24 18 -20 8 3 -8 0 -18 -8
-21 -9 -3 -12 0 -8 10 3 8 2 14 -3 13 -22 -4 -35 2 -28 14 5 9 4 9 -6 0 -10
-9 -17 -7 -33 8 -12 11 -25 15 -31 10 -6 -4 -19 -8 -29 -8 -13 0 -16 6 -11 21
3 12 2 17 -3 11 -12 -15 -47 -19 -37 -4 5 8 3 9 -7 3 -8 -4 -24 -9 -35 -10
-16 0 -20 4 -16 18 5 20 -13 25 -24 6 -5 -7 -3 -8 6 -3 8 5 11 4 7 -2 -7 -11
-43 -11 -54 1 -5 4 -2 6 6 4 7 -1 16 4 18 12 3 10 2 11 -4 4 -4 -6 -16 -10
-26 -8 -9 1 -15 -2 -11 -7 3 -5 0 -9 -5 -9 -6 0 -11 6 -11 13 0 8 -12 13 -32
13 -18 -1 -33 -6 -33 -13 0 -6 -3 -15 -7 -19 -4 -3 -5 3 -3 15 4 22 3 22 -126
20 -114 -2 -129 -4 -124 -18 3 -11 0 -9 -11 4 -11 14 -18 16 -21 8 -3 -7 -9
-13 -14 -13 -6 0 -8 4 -5 8 3 5 -2 9 -10 9 -8 0 -13 -6 -10 -13 6 -15 -17 -13
-36 4 -11 9 -17 9 -27 -1 -9 -9 -13 -9 -19 0 -6 9 -11 7 -18 -5z m60 -8 c3 -9
2 -12 -5 -9 -5 4 -16 1 -24 -5 -12 -10 -15 -10 -15 1 0 11 -3 11 -11 -1 -9
-13 -10 -13 -6 0 2 8 11 14 20 12 8 -1 18 2 22 8 8 14 12 13 19 -6z m407 -7
c-10 -9 -11 -8 -5 6 3 10 9 15 12 12 3 -3 0 -11 -7 -18z m284 -36 c3 -5 1 -12
-5 -16 -5 -3 -10 1 -10 9 0 18 6 21 15 7z m20 -31 c3 -5 1 -10 -4 -10 -6 0
-11 5 -11 10 0 6 2 10 4 10 3 0 8 -4 11 -10z m45 -16 c0 -8 -19 -13 -24 -6 -3
5 1 9 9 9 8 0 15 -2 15 -3z m218 -109 c-3 -3 -9 2 -12 12 -6 14 -5 15 5 6 7
-7 10 -15 7 -18z m-1508 5 c0 -5 -5 -10 -11 -10 -5 0 -7 5 -4 10 3 6 8 10 11
10 2 0 4 -4 4 -10z m-55 -48 c-3 -3 -11 0 -18 7 -9 10 -8 11 6 5 10 -3 15 -9
12 -12z m-108 -67 c0 -8 -4 -12 -9 -9 -5 3 -6 10 -3 15 9 13 12 11 12 -6z
m2217 -391 c3 -8 2 -12 -4 -9 -6 3 -10 10 -10 16 0 14 7 11 14 -7z m-2574 -39
c-7 -8 -17 -15 -22 -15 -11 0 14 29 26 30 5 0 3 -7 -4 -15z m2584 -15 c-6 -6
-10 -3 -10 10 0 13 4 16 10 10 7 -7 7 -13 0 -20z m43 -92 c2 -17 0 -19 -7 -8
-5 8 -6 18 -4 22 8 12 10 10 11 -14z m-2683 -24 c3 -8 2 -12 -4 -9 -6 3 -10
10 -10 16 0 14 7 11 14 -7z m-54 -109 c0 -2 -6 -5 -13 -8 -8 -3 -14 1 -14 8 0
7 6 11 14 8 7 -3 13 -6 13 -8z m-3 -30 c0 -8 -4 -15 -9 -15 -10 0 -11 14 -1
23 9 10 10 9 10 -8z m-17 -47 c0 -6 -6 -5 -15 2 -8 7 -15 14 -15 16 0 2 7 1
15 -2 8 -4 15 -11 15 -16z m-44 -123 c-14 -11 -16 -15 -5 -15 12 0 12 -2 -1
-10 -13 -9 -13 -11 0 -21 13 -9 13 -10 0 -6 -27 7 -15 67 14 67 6 0 2 -7 -8
-15z m2937 -10 c-7 -21 -12 -19 -10 4 0 11 5 18 9 15 4 -3 5 -11 1 -19z m20
-70 c4 -8 3 -16 -1 -19 -4 -3 -9 4 -9 15 -2 23 3 25 10 4z m5 -440 c-3 -3 -9
2 -12 12 -6 14 -5 15 5 6 7 -7 10 -15 7 -18z m-14 -13 c3 -5 -1 -9 -9 -9 -8 0
-12 4 -9 9 3 4 7 8 9 8 2 0 6 -4 9 -8z m-2944 -6 c0 -2 -9 -6 -20 -9 -11 -3
-18 -1 -14 4 5 9 34 13 34 5z m4 -84 c3 -5 -1 -9 -9 -9 -8 0 -12 4 -9 9 3 4 7
8 9 8 2 0 6 -4 9 -8z m2931 -12 c3 -5 1 -10 -4 -10 -6 0 -11 5 -11 10 0 6 2
10 4 10 3 0 8 -4 11 -10z m-9 -45 c3 -21 -32 -50 -42 -34 -4 7 -3 10 3 6 14
-9 31 14 27 36 -1 11 0 16 4 13 3 -4 7 -13 8 -21z m-2894 -52 c-6 -2 -9 -10
-6 -15 4 -7 2 -8 -5 -4 -13 9 -5 26 12 25 9 0 8 -2 -1 -6z m15 -39 c-3 -3 -12
-4 -19 -1 -8 3 -5 6 6 6 11 1 17 -2 13 -5z m18 -64 c3 -6 -1 -7 -9 -4 -18 7
-21 14 -7 14 6 0 13 -4 16 -10z m412 -605 c0 -8 -4 -12 -9 -9 -5 3 -6 10 -3
15 9 13 12 11 12 -6z m1958 -5 c3 -6 -1 -7 -9 -4 -18 7 -21 14 -7 14 6 0 13
-4 16 -10z m-35 -30 c0 -5 -2 -10 -4 -10 -3 0 -8 5 -11 10 -3 6 -1 10 4 10 6
0 11 -4 11 -10z m-96 -76 c3 -8 2 -12 -4 -9 -6 3 -10 10 -10 16 0 14 7 11 14
-7z m-1564 -40 c0 -8 -19 -13 -24 -6 -3 5 1 9 9 9 8 0 15 -2 15 -3z m1400 -59
c-22 -24 -40 -25 -40 -3 0 5 7 7 15 4 9 -3 18 1 21 9 4 8 11 15 17 15 6 0 0
-11 -13 -25z m-106 -23 c3 -5 -1 -9 -9 -9 -8 0 -12 4 -9 9 3 4 7 8 9 8 2 0 6
-4 9 -8z m-1154 -8 c0 -8 -19 -13 -24 -6 -3 5 1 9 9 9 8 0 15 -2 15 -3z m41
-27 c-10 -9 -11 -8 -5 6 3 10 9 15 12 12 3 -3 0 -11 -7 -18z m1031 -19 c-7 -7
-12 -8 -12 -2 0 14 12 26 19 19 2 -3 -1 -11 -7 -17z m-909 -15 c-3 -7 -9 -10
-14 -7 -14 8 -11 21 5 21 8 0 12 -6 9 -14z m755 -38 c-3 -3 -9 2 -12 12 -6 14
-5 15 5 6 7 -7 10 -15 7 -18z m-582 -4 c1 -6 0 -7 -3 -1 -2 5 -9 8 -13 5 -5
-3 -11 -1 -14 4 -4 5 2 8 11 7 9 -2 18 -8 19 -15z m464 -11 c0 -5 -5 -10 -11
-10 -5 0 -7 5 -4 10 3 6 8 10 11 10 2 0 4 -4 4 -10z"/>
<path d="M1823 2995 c0 -6 6 -12 12 -12 6 0 12 6 12 12 0 6 -6 12 -12 12 -6 0
-12 -6 -12 -12z"/>
<path d="M1006 2942 c-3 -5 1 -9 9 -9 8 0 15 4 15 9 0 4 -4 8 -9 8 -6 0 -12
-4 -15 -8z"/>
<path d="M2427 2703 c3 -7 8 -13 12 -13 4 0 8 6 8 13 0 8 -6 14 -13 14 -7 0
-10 -6 -7 -14z"/>
<path d="M2595 2560 c-3 -6 1 -7 9 -4 18 7 21 14 7 14 -6 0 -13 -4 -16 -10z"/>
<path d="M2647 2517 c-3 -7 1 -21 9 -32 8 -10 14 -14 14 -8 0 7 -4 14 -10 18
-5 3 -7 12 -3 20 3 8 3 15 0 15 -3 0 -7 -6 -10 -13z"/>
<path d="M30 1859 c0 -5 5 -7 10 -4 6 3 10 8 10 11 0 2 -4 4 -10 4 -5 0 -10
-5 -10 -11z"/>
<path d="M15 1240 c-3 -5 1 -10 10 -10 9 0 13 5 10 10 -3 6 -8 10 -10 10 -2 0
-7 -4 -10 -10z"/>
<path d="M40 1099 c0 -5 5 -7 10 -4 6 3 10 8 10 11 0 2 -4 4 -10 4 -5 0 -10
-5 -10 -11z"/>
<path d="M2952 1075 c4 -4 3 -14 -3 -21 -7 -8 -7 -14 1 -19 5 -3 10 -5 11 -3
6 27 5 39 -4 45 -7 3 -9 3 -5 -2z"/>
<path d="M206 702 c-3 -5 1 -9 9 -9 8 0 12 4 9 9 -3 4 -7 8 -9 8 -2 0 -6 -4
-9 -8z"/>
<path d="M2699 583 c-8 -9 -9 -14 -2 -10 6 4 13 2 15 -5 3 -8 7 -6 11 5 9 23
-8 30 -24 10z"/>
<path d="M2646 532 c-3 -6 -1 -14 5 -17 14 -9 20 -2 10 14 -6 8 -11 9 -15 3z"/>
<path d="M2625 489 c-4 -5 -4 -13 -1 -16 3 -4 6 0 6 8 0 11 2 11 10 -1 6 -9
10 -10 10 -3 0 17 -17 25 -25 12z"/>
<path d="M2470 330 c0 -5 5 -10 11 -10 5 0 7 5 4 10 -3 6 -8 10 -11 10 -2 0
-4 -4 -4 -10z"/>
<path d="M2415 309 c-10 -15 3 -25 16 -12 7 7 7 13 1 17 -6 3 -14 1 -17 -5z"/>
<path d="M2256 201 c-3 -5 1 -11 9 -14 9 -4 12 -1 8 9 -6 16 -10 17 -17 5z"/>
<path d="M856 122 c-2 -4 4 -8 14 -8 10 0 16 4 14 8 -3 4 -9 8 -14 8 -5 0 -11
-4 -14 -8z"/>
<path d="M993 85 c0 -8 4 -15 9 -15 4 0 8 4 8 9 0 6 -4 12 -8 15 -5 3 -9 -1
-9 -9z"/>
<path d="M1146 23 c-6 -14 -5 -15 5 -6 7 7 10 15 7 18 -3 3 -9 -2 -12 -12z"/>
</g>
</svg>
